<svg xmlns="http://www.w3.org/2000/svg" viewBox="0 0 2000 680" width="2000" height="680">
  <defs>
    <style>
      text { font-family: 'Segoe UI', system-ui, -apple-system, sans-serif; }
      .mono { font-family: 'Courier New', Courier, monospace; }
      .title { font-size: 15px; font-weight: 700; fill: #e2e8f0; }
      .sub   { font-size: 11px; fill: #94a3b8; }
      .lane-label { font-size: 11px; font-weight: 700; letter-spacing: 2px; }
      .edge-label { font-size: 10px; fill: #94a3b8; }
    </style>
    <linearGradient id="bg" x1="0%" y1="0%" x2="100%" y2="100%">
      <stop offset="0%" style="stop-color:#0a0e1a"/>
      <stop offset="100%" style="stop-color:#0c1122"/>
    </linearGradient>
    <linearGradient id="card" x1="0%" y1="0%" x2="0%" y2="100%">
      <stop offset="0%" style="stop-color:#1a2035"/>
      <stop offset="100%" style="stop-color:#131929"/>
    </linearGradient>
    <filter id="shadow">
      <feDropShadow dx="0" dy="3" stdDeviation="6" flood-color="#000" flood-opacity="0.6"/>
    </filter>
    <filter id="glow-teal">
      <feGaussianBlur stdDeviation="3" result="blur"/>
      <feMerge><feMergeNode in="blur"/><feMergeNode in="SourceGraphic"/></feMerge>
    </filter>
    <!-- Arrow markers -->
    <marker id="arr" markerWidth="8" markerHeight="8" refX="7" refY="3" orient="auto">
      <path d="M0,0 L0,6 L8,3 z" fill="#64748b"/>
    </marker>
    <marker id="arr-red" markerWidth="8" markerHeight="8" refX="7" refY="3" orient="auto">
      <path d="M0,0 L0,6 L8,3 z" fill="#ef4444"/>
    </marker>
    <marker id="arr-amber" markerWidth="8" markerHeight="8" refX="7" refY="3" orient="auto">
      <path d="M0,0 L0,6 L8,3 z" fill="#f5a623"/>
    </marker>
    <marker id="arr-green" markerWidth="8" markerHeight="8" refX="7" refY="3" orient="auto">
      <path d="M0,0 L0,6 L8,3 z" fill="#22c55e"/>
    </marker>
  </defs>

  <!-- ── BACKGROUND ── -->
  <rect width="2000" height="680" fill="url(#bg)"/>

  <!-- subtle grid -->
  <g stroke="#ffffff" stroke-opacity="0.025" stroke-width="1">
    <line x1="0" y1="120" x2="2000" y2="120"/>
    <line x1="0" y1="240" x2="2000" y2="240"/>
    <line x1="0" y1="360" x2="2000" y2="360"/>
    <line x1="0" y1="480" x2="2000" y2="480"/>
    <line x1="0" y1="600" x2="2000" y2="600"/>
  </g>

  <!-- ── HEADER ── -->
  <rect x="0" y="0" width="2000" height="58" fill="#080c17"/>
  <rect x="0" y="56" width="2000" height="2" fill="#1a2a44"/>
  <text x="32" y="20" class="lane-label" fill="#00d4aa" font-size="9">DATA ENGINEERING PROJECT</text>
  <text x="32" y="46" fill="#e2e8f0" font-size="22" font-weight="700" letter-spacing="2">FX RATE PIPELINE</text>
  <text x="275" y="46" fill="#475569" font-size="14"> — Dockerized ETL  ·  Apache NiFi  ·  PostgreSQL  ·  Docker</text>

  <rect x="1830" y="16" width="130" height="26" rx="13" fill="#00d4aa" fill-opacity="0.12" stroke="#00d4aa" stroke-width="1"/>
  <circle cx="1850" cy="29" r="4" fill="#00d4aa"/>
  <text x="1862" y="34" fill="#00d4aa" font-size="12" font-weight="600">LIVE PIPELINE</text>

  <!-- ════════════════════════════════════════════════════
       SWIM LANE 1 — SOURCE
       ════════════════════════════════════════════════════ -->
  <rect x="14" y="70" width="200" height="170" rx="10"
        fill="#071410" stroke="#00d4aa" stroke-width="1.5" filter="url(#shadow)"/>
  <rect x="14" y="70" width="200" height="26" rx="10" fill="#00d4aa" fill-opacity="0.15"/>
  <rect x="14" y="86" width="200" height="10" fill="#00d4aa" fill-opacity="0.1"/>
  <text x="114" y="88" class="lane-label" fill="#00d4aa" font-size="10" text-anchor="middle">DATA SOURCE</text>

  <!-- API card -->
  <rect x="26" y="106" width="176" height="118" rx="8" fill="url(#card)" stroke="#00d4aa" stroke-width="1.5" filter="url(#shadow)"/>
  <rect x="26" y="106" width="176" height="4" rx="2" fill="#00d4aa"/>
  <!-- globe icon simplified -->
  <circle cx="55" cy="136" r="13" fill="none" stroke="#00d4aa" stroke-width="1.5"/>
  <ellipse cx="55" cy="136" rx="5" ry="13" fill="none" stroke="#00d4aa" stroke-width="1.2"/>
  <line x1="42" y1="136" x2="68" y2="136" stroke="#00d4aa" stroke-width="1.2"/>
  <text x="76" y="131" class="title" font-size="13">Frankfurter API</text>
  <text x="76" y="146" class="sub" font-size="10">api.frankfurter.app</text>
  <rect x="34" y="157" width="160" height="16" rx="5" fill="#00d4aa" fill-opacity="0.1"/>
  <text x="114" y="169" class="mono" fill="#00d4aa" font-size="9" text-anchor="middle">GET /latest?from=USD</text>
  <text x="114" y="190" class="sub" font-size="9" text-anchor="middle">Runs every 60 seconds</text>
  <text x="114" y="204" class="sub" font-size="9" text-anchor="middle">Returns JSON with FX rates</text>

  <!-- HTTPS arrow: API -> P1 -->
  <line x1="214" y1="178" x2="258" y2="178" stroke="#00d4aa" stroke-width="1.8" marker-end="url(#arr)"/>
  <text x="236" y="170" class="edge-label" fill="#00d4aa" font-size="9" text-anchor="middle">HTTPS GET</text>
  <text x="236" y="184" class="edge-label" font-size="9" text-anchor="middle">1 min schedule</text>

  <!-- ════════════════════════════════════════════════════
       SWIM LANE 2 — NIFI
       ════════════════════════════════════════════════════ -->
  <rect x="215" y="70" width="1330" height="540" rx="10"
        fill="#070f1a" stroke="#72b043" stroke-width="1.5" filter="url(#shadow)"/>
  <rect x="215" y="70" width="1330" height="26" rx="10" fill="#72b043" fill-opacity="0.12"/>
  <rect x="215" y="86" width="1330" height="10" fill="#72b043" fill-opacity="0.08"/>
  <text x="880" y="88" class="lane-label" fill="#72b043" font-size="10" text-anchor="middle">APACHE NIFI  —  INGESTION AND TRANSFORMATION LAYER</text>

  <!-- ── PROCESSOR CARDS ── -->
  <!-- Helper macro: card at (x, y, w=160, h=115, accent, step, name, line1, line2, code) -->

  <!-- P1 InvokeHTTP -->
  <rect x="258" y="115" width="170" height="130" rx="8" fill="url(#card)" stroke="#3b82f6" stroke-width="1.8" filter="url(#shadow)"/>
  <rect x="258" y="115" width="170" height="4" rx="2" fill="#3b82f6"/>
  <rect x="264" y="123" width="22" height="22" rx="4" fill="#3b82f6" fill-opacity="0.2"/>
  <text x="275" y="138" fill="#3b82f6" font-size="14" text-anchor="middle">1</text>
  <text x="295" y="136" class="title" fill="#93c5fd" font-size="13">InvokeHTTP</text>
  <text x="265" y="158" class="sub">Fetch remote JSON</text>
  <text x="265" y="172" class="sub">payload via HTTPS</text>
  <text x="265" y="190" class="mono" fill="#3b82f6" font-size="9">HTTP Method: GET</text>
  <text x="265" y="203" class="mono" fill="#3b82f6" font-size="9">Schedule: 60s</text>
  <text x="265" y="216" class="mono" fill="#3b82f6" font-size="9">Output: Response</text>

  <!-- arrow P1 -> P2 -->
  <line x1="428" y1="178" x2="462" y2="178" stroke="#64748b" stroke-width="1.5" marker-end="url(#arr)"/>
  <text x="445" y="170" class="edge-label" text-anchor="middle">Raw JSON</text>

  <!-- P2 JoltTransformJSON -->
  <rect x="462" y="115" width="185" height="130" rx="8" fill="url(#card)" stroke="#f59e0b" stroke-width="1.8" filter="url(#shadow)"/>
  <rect x="462" y="115" width="185" height="4" rx="2" fill="#f59e0b"/>
  <rect x="468" y="123" width="22" height="22" rx="4" fill="#f59e0b" fill-opacity="0.2"/>
  <text x="479" y="138" fill="#f59e0b" font-size="14" text-anchor="middle">2</text>
  <text x="500" y="136" class="title" fill="#fcd34d" font-size="13">JoltTransformJSON</text>
  <text x="469" y="158" class="sub">Pivot nested rates map</text>
  <text x="469" y="172" class="sub">into an array of row objects</text>
  <text x="469" y="190" class="mono" fill="#f59e0b" font-size="9">Transform: shift</text>
  <text x="469" y="203" class="mono" fill="#f59e0b" font-size="9">keys  -&gt;  target_currency</text>
  <text x="469" y="216" class="mono" fill="#f59e0b" font-size="9">values -&gt; exchange_rate</text>

  <!-- arrow P2 -> P3 -->
  <line x1="647" y1="178" x2="681" y2="178" stroke="#64748b" stroke-width="1.5" marker-end="url(#arr)"/>
  <text x="664" y="170" class="edge-label" text-anchor="middle">Array of</text>
  <text x="664" y="183" class="edge-label" text-anchor="middle">objects</text>

  <!-- P3 SplitJson -->
  <rect x="681" y="115" width="175" height="130" rx="8" fill="url(#card)" stroke="#a78bfa" stroke-width="1.8" filter="url(#shadow)"/>
  <rect x="681" y="115" width="175" height="4" rx="2" fill="#a78bfa"/>
  <rect x="687" y="123" width="22" height="22" rx="4" fill="#a78bfa" fill-opacity="0.2"/>
  <text x="698" y="138" fill="#a78bfa" font-size="14" text-anchor="middle">3</text>
  <text x="720" y="136" class="title" fill="#c4b5fd" font-size="13">SplitJson</text>
  <text x="688" y="158" class="sub">One FlowFile per</text>
  <text x="688" y="172" class="sub">currency pair record</text>
  <text x="688" y="190" class="mono" fill="#a78bfa" font-size="9">JsonPath: $.*</text>
  <text x="688" y="203" class="mono" fill="#a78bfa" font-size="9">split -&gt; downstream</text>
  <text x="688" y="216" class="mono" fill="#a78bfa" font-size="9">original -&gt; terminate</text>

  <!-- arrow P3 -> P4 -->
  <line x1="856" y1="178" x2="890" y2="178" stroke="#64748b" stroke-width="1.5" marker-end="url(#arr)"/>
  <text x="873" y="170" class="edge-label" text-anchor="middle">Individual</text>
  <text x="873" y="183" class="edge-label" text-anchor="middle">FlowFile</text>

  <!-- P4 EvaluateJsonPath -->
  <rect x="890" y="115" width="185" height="130" rx="8" fill="url(#card)" stroke="#06b6d4" stroke-width="1.8" filter="url(#shadow)"/>
  <rect x="890" y="115" width="185" height="4" rx="2" fill="#06b6d4"/>
  <rect x="896" y="123" width="22" height="22" rx="4" fill="#06b6d4" fill-opacity="0.2"/>
  <text x="907" y="138" fill="#06b6d4" font-size="14" text-anchor="middle">4</text>
  <text x="928" y="136" class="title" fill="#67e8f9" font-size="13">EvaluateJsonPath</text>
  <text x="897" y="158" class="sub">Extract key attributes</text>
  <text x="897" y="172" class="sub">from FlowFile body</text>
  <text x="897" y="190" class="mono" fill="#06b6d4" font-size="9">base  -&gt;  $.base_currency</text>
  <text x="897" y="203" class="mono" fill="#06b6d4" font-size="9">target -&gt; $.target_currency</text>
  <text x="897" y="216" class="mono" fill="#06b6d4" font-size="9">date  -&gt;  $.rate_date</text>

  <!-- arrow P4 -> P5 -->
  <line x1="1075" y1="178" x2="1109" y2="178" stroke="#64748b" stroke-width="1.5" marker-end="url(#arr)"/>
  <text x="1092" y="170" class="edge-label" text-anchor="middle">FF with</text>
  <text x="1092" y="183" class="edge-label" text-anchor="middle">attributes</text>

  <!-- P5 DetectDuplicate -->
  <rect x="1109" y="115" width="185" height="130" rx="8" fill="url(#card)" stroke="#8b5cf6" stroke-width="1.8" filter="url(#shadow)"/>
  <rect x="1109" y="115" width="185" height="4" rx="2" fill="#8b5cf6"/>
  <rect x="1115" y="123" width="22" height="22" rx="4" fill="#8b5cf6" fill-opacity="0.2"/>
  <text x="1126" y="138" fill="#8b5cf6" font-size="14" text-anchor="middle">5</text>
  <text x="1147" y="136" class="title" fill="#c4b5fd" font-size="13">DetectDuplicate</text>
  <text x="1116" y="158" class="sub">Compare record hash</text>
  <text x="1116" y="172" class="sub">against in-memory cache</text>
  <text x="1116" y="190" class="mono" fill="#8b5cf6" font-size="9">Cache entry identifier:</text>
  <text x="1116" y="203" class="mono" fill="#8b5cf6" font-size="9">${base}_${target}</text>
  <text x="1116" y="216" class="mono" fill="#8b5cf6" font-size="9">_${date}_${rate}</text>

  <!-- arrow P5 -> DROP (up) -->
  <line x1="1201" y1="115" x2="1201" y2="82" stroke="#ef4444" stroke-width="1.5"/>
  <line x1="1201" y1="82" x2="1370" y2="82" stroke="#ef4444" stroke-width="1.5" marker-end="url(#arr-red)"/>
  <rect x="1155" y="89" width="90" height="16" rx="6" fill="#100506"/>
  <text x="1200" y="101" class="edge-label" fill="#ef4444" font-size="9" text-anchor="middle">Duplicate route</text>

  <!-- DUPLICATE badge -->
  <rect x="1370" y="66" width="155" height="60" rx="8" fill="#1a0505" stroke="#ef4444" stroke-width="1.8" filter="url(#shadow)"/>
  <rect x="1370" y="66" width="155" height="4" rx="2" fill="#ef4444"/>
  <text x="1447" y="90" class="title" fill="#fca5a5" font-size="14" text-anchor="middle">DUPLICATE</text>
  <text x="1447" y="107" class="sub" font-size="10" text-anchor="middle">Auto-Terminated</text>
  <text x="1447" y="118" class="sub" font-size="9" text-anchor="middle">Record discarded</text>

  <!-- arrow P5 -> P6 (right) -->
  <line x1="1294" y1="178" x2="1338" y2="178" stroke="#22c55e" stroke-width="1.5" marker-end="url(#arr-green)"/>
  <text x="1316" y="170" class="edge-label" fill="#22c55e" font-size="9" text-anchor="middle">Unique</text>
  <text x="1316" y="183" class="edge-label" fill="#22c55e" font-size="9" text-anchor="middle">record</text>

  <!-- P6 PutDatabaseRecord -->
  <rect x="1338" y="115" width="185" height="130" rx="8" fill="url(#card)" stroke="#22c55e" stroke-width="1.8" filter="url(#shadow)"/>
  <rect x="1338" y="115" width="185" height="4" rx="2" fill="#22c55e"/>
  <rect x="1344" y="123" width="22" height="22" rx="4" fill="#22c55e" fill-opacity="0.2"/>
  <text x="1355" y="138" fill="#22c55e" font-size="14" text-anchor="middle">6</text>
  <text x="1376" y="136" class="title" fill="#86efac" font-size="13">PutDatabaseRecord</text>
  <text x="1345" y="158" class="sub">Write record to target</text>
  <text x="1345" y="172" class="sub">PostgreSQL table</text>
  <text x="1345" y="190" class="mono" fill="#22c55e" font-size="9">Statement: INSERT</text>
  <text x="1345" y="203" class="mono" fill="#22c55e" font-size="9">Table: fx_rates</text>
  <text x="1345" y="216" class="mono" fill="#22c55e" font-size="9">Reader: JsonTreeReader</text>

  <!-- ── DISTRIBUTED MAP CACHE ── -->
  <!-- Cylinder top -->
  <ellipse cx="1105" cy="390" rx="70" ry="20" fill="#2a1a00" stroke="#f5a623" stroke-width="1.8"/>
  <rect x="1035" y="390" width="140" height="80" fill="#1c1200" stroke="#f5a623" stroke-width="1.8"/>
  <!-- bottom of cylinder -->
  <ellipse cx="1105" cy="470" rx="70" ry="20" fill="#2a1a00" stroke="#f5a623" stroke-width="1.8"/>
  <!-- cover left/right seams -->
  <rect x="1035" y="390" width="2" height="80" fill="#1c1200"/>
  <rect x="1173" y="390" width="2" height="80" fill="#1c1200"/>
  <!-- cylinder label -->
  <text x="1105" y="405" class="title" fill="#fcd34d" font-size="12" text-anchor="middle">DistributedMapCache</text>
  <text x="1105" y="422" class="sub" text-anchor="middle">Server + Client Services</text>
  <text x="1105" y="438" class="mono" fill="#f5a623" font-size="9" text-anchor="middle">In-memory key-value store</text>
  <text x="1105" y="452" class="mono" fill="#f5a623" font-size="9" text-anchor="middle">State lost on container restart</text>
  <!-- warning stripe -->
  <rect x="1039" y="459" width="132" height="12" rx="3" fill="#f5a623" fill-opacity="0.15"/>
  <text x="1105" y="469" fill="#f5a623" font-size="8" text-anchor="middle">WARNING: ephemeral state</text>

  <!-- dotted arrow cache -> P5 -->
  <line x1="1105" y1="390" x2="1201" y2="248" stroke="#f5a623" stroke-width="1.5" stroke-dasharray="7,3" marker-end="url(#arr-amber)"/>
  <rect x="1108" y="315" width="80" height="16" rx="6" fill="#0d0f1a"/>
  <text x="1148" y="327" class="edge-label" fill="#f5a623" font-size="9" text-anchor="middle">Cache lookup</text>

  <!-- ── JOLT SPEC ANNOTATION ── -->
  <rect x="230" y="270" width="730" height="320" rx="10" fill="#06080f" stroke="#1e2d4a" stroke-width="1.5" filter="url(#shadow)"/>
  <rect x="230" y="270" width="730" height="26" rx="10" fill="#1a2035"/>
  <text x="260" y="288" class="lane-label" fill="#64748b" font-size="9">JOLT TRANSFORM SPEC  //  INPUT vs OUTPUT</text>

  <!-- Code block left -->
  <rect x="244" y="302" width="340" height="278" rx="6" fill="#03050d"/>
  <text x="262" y="320" class="lane-label" fill="#475569" font-size="9">INPUT JSON PAYLOAD</text>
  <text font-family="'Courier New', monospace" font-size="11">
    <tspan x="262" y="338" fill="#8b5cf6">{</tspan>
    <tspan x="268" dy="16" fill="#f59e0b">"amount"</tspan><tspan fill="#e2e8f0">: </tspan><tspan fill="#22c55e">1.0</tspan><tspan fill="#e2e8f0">,</tspan>
    <tspan x="268" dy="15" fill="#f59e0b">"base"</tspan><tspan fill="#e2e8f0">: </tspan><tspan fill="#22c55e">"USD"</tspan><tspan fill="#e2e8f0">,</tspan>
    <tspan x="268" dy="15" fill="#f59e0b">"date"</tspan><tspan fill="#e2e8f0">: </tspan><tspan fill="#22c55e">"2026-04-15"</tspan><tspan fill="#e2e8f0">,</tspan>
    <tspan x="268" dy="15" fill="#f59e0b">"rates"</tspan><tspan fill="#e2e8f0">: {</tspan>
    <tspan x="280" dy="15" fill="#f59e0b">"EUR"</tspan><tspan fill="#e2e8f0">: </tspan><tspan fill="#22c55e">0.950000</tspan><tspan fill="#e2e8f0">,</tspan>
    <tspan x="280" dy="15" fill="#f59e0b">"GBP"</tspan><tspan fill="#e2e8f0">: </tspan><tspan fill="#22c55e">0.820000</tspan><tspan fill="#e2e8f0">,</tspan>
    <tspan x="280" dy="15" fill="#64748b">... 30+ currencies ...</tspan>
    <tspan x="268" dy="15" fill="#e2e8f0">}</tspan>
    <tspan x="262" dy="15" fill="#8b5cf6">}</tspan>
  </text>
  <text x="262" y="494" class="lane-label" fill="#475569" font-size="9">JOLT OPERATION: shift</text>
  <rect x="244" y="498" width="340" height="78" rx="4" fill="#000"/>
  <text font-family="'Courier New', monospace" font-size="10">
    <tspan x="254" y="516" fill="#8b5cf6">[{ "operation": </tspan><tspan fill="#22c55e">"shift"</tspan><tspan fill="#8b5cf6">, "spec": {</tspan>
    <tspan x="254" dy="14" fill="#f59e0b">  "rates"</tspan><tspan fill="#e2e8f0">: { </tspan><tspan fill="#f59e0b">"*"</tspan><tspan fill="#e2e8f0">: {</tspan>
    <tspan x="254" dy="14" fill="#06b6d4">    "$"</tspan><tspan fill="#e2e8f0">: </tspan><tspan fill="#22c55e">"[#2].target_currency"</tspan>
    <tspan x="254" dy="14" fill="#06b6d4">    "@"</tspan><tspan fill="#e2e8f0">: </tspan><tspan fill="#22c55e">"[#2].exchange_rate"</tspan>
    <tspan x="254" dy="14" fill="#e2e8f0">  }}}]</tspan>
  </text>

  <!-- vertical divider -->
  <line x1="595" y1="302" x2="595" y2="574" stroke="#1e2d4a" stroke-width="1"/>

  <!-- Code block right: OUTPUT -->
  <rect x="606" y="302" width="344" height="278" rx="6" fill="#03050d"/>
  <text x="624" y="320" class="lane-label" fill="#475569" font-size="9">OUTPUT  (after Jolt + SplitJson, 1 FlowFile per pair)</text>
  <text font-family="'Courier New', monospace" font-size="11">
    <tspan x="624" y="338" fill="#8b5cf6">[</tspan>
    <tspan x="628" dy="16" fill="#8b5cf6">{</tspan>
    <tspan x="636" dy="15" fill="#f59e0b">"base_currency"</tspan><tspan fill="#e2e8f0">: </tspan><tspan fill="#22c55e">"USD"</tspan><tspan fill="#e2e8f0">,</tspan>
    <tspan x="636" dy="15" fill="#f59e0b">"target_currency"</tspan><tspan fill="#e2e8f0">: </tspan><tspan fill="#22c55e">"EUR"</tspan><tspan fill="#e2e8f0">,</tspan>
    <tspan x="636" dy="15" fill="#f59e0b">"exchange_rate"</tspan><tspan fill="#e2e8f0">: </tspan><tspan fill="#22c55e">0.950000</tspan><tspan fill="#e2e8f0">,</tspan>
    <tspan x="636" dy="15" fill="#f59e0b">"rate_date"</tspan><tspan fill="#e2e8f0">: </tspan><tspan fill="#22c55e">"2026-04-15"</tspan>
    <tspan x="628" dy="15" fill="#8b5cf6">},</tspan>
    <tspan x="628" dy="15" fill="#8b5cf6">{</tspan>
    <tspan x="636" dy="15" fill="#f59e0b">"base_currency"</tspan><tspan fill="#e2e8f0">: </tspan><tspan fill="#22c55e">"USD"</tspan><tspan fill="#e2e8f0">,</tspan>
    <tspan x="636" dy="15" fill="#f59e0b">"target_currency"</tspan><tspan fill="#e2e8f0">: </tspan><tspan fill="#22c55e">"GBP"</tspan><tspan fill="#e2e8f0">,</tspan>
    <tspan x="636" dy="15" fill="#64748b">  ...</tspan>
    <tspan x="628" dy="15" fill="#8b5cf6">}</tspan>
    <tspan x="624" dy="15" fill="#8b5cf6">]</tspan>
  </text>

  <!-- ════════════════════════════════════════════════════
       SWIM LANE 3 — DESTINATION
       ════════════════════════════════════════════════════ -->
  <rect x="1560" y="70" width="425" height="540" rx="10"
        fill="#06101e" stroke="#336791" stroke-width="1.5" filter="url(#shadow)"/>
  <rect x="1560" y="70" width="425" height="26" rx="10" fill="#336791" fill-opacity="0.15"/>
  <rect x="1560" y="86" width="425" height="10" fill="#336791" fill-opacity="0.08"/>
  <text x="1772" y="88" class="lane-label" fill="#6ea8d4" font-size="10" text-anchor="middle">DESTINATION  —  POSTGRESQL DATABASE</text>

  <!-- arrow P6 -> PG -->
  <line x1="1523" y1="178" x2="1560" y2="178" stroke="#22c55e" stroke-width="1.5" marker-end="url(#arr-green)"/>
  <text x="1541" y="168" class="edge-label" fill="#22c55e" font-size="9" text-anchor="middle">INSERT</text>

  <!-- PostgreSQL cylinder -->
  <ellipse cx="1772" cy="200" rx="100" ry="28" fill="#0d1f38" stroke="#336791" stroke-width="1.8"/>
  <rect x="1672" y="200" width="200" height="100" fill="#091525" stroke="#336791" stroke-width="1.8"/>
  <rect x="1672" y="200" width="2" height="100" fill="#091525"/>
  <rect x="1870" y="200" width="2" height="100" fill="#091525"/>
  <ellipse cx="1772" cy="300" rx="100" ry="28" fill="#0d1f38" stroke="#336791" stroke-width="1.8"/>
  <text x="1772" y="215" class="title" fill="#93c5fd" font-size="14" text-anchor="middle">postgres_fx</text>
  <text x="1772" y="233" class="sub" text-anchor="middle">Port 5432  |  Database: fx_db</text>
  <text x="1772" y="250" class="mono" fill="#6ea8d4" font-size="10" text-anchor="middle">Table: public.fx_rates</text>
  <text x="1772" y="266" class="mono" fill="#336791" font-size="9" text-anchor="middle">PK: base_currency + target_currency + rate_date</text>
  <text x="1772" y="282" class="sub" text-anchor="middle">Image: postgres:15</text>
  <text x="1772" y="295" class="sub" text-anchor="middle">Network: nifi-network (bridge)</text>

  <!-- Schema table -->
  <rect x="1580" y="345" width="380" height="150" rx="8" fill="#060e1d" stroke="#1e2d4a" stroke-width="1"/>
  <rect x="1580" y="345" width="380" height="24" rx="8" fill="#1a2a44"/>
  <text x="1770" y="362" class="lane-label" fill="#6ea8d4" font-size="9" text-anchor="middle">SCHEMA: fx_rates</text>
  <!-- header row -->
  <rect x="1584" y="371" width="372" height="18" fill="#0f1f38"/>
  <text x="1590" y="384" class="mono" fill="#6ea8d4" font-size="9">Column</text>
  <text x="1730" y="384" class="mono" fill="#6ea8d4" font-size="9">Type</text>
  <text x="1830" y="384" class="mono" fill="#6ea8d4" font-size="9">Constraint</text>
  <!-- rows -->
  <text x="1590" y="400" class="mono" fill="#e2e8f0" font-size="9">base_currency</text>
  <text x="1730" y="400" class="mono" fill="#f59e0b" font-size="9">VARCHAR(3)</text>
  <text x="1830" y="400" class="mono" fill="#22c55e" font-size="9">PK (part 1)</text>

  <text x="1590" y="415" class="mono" fill="#e2e8f0" font-size="9">target_currency</text>
  <text x="1730" y="415" class="mono" fill="#f59e0b" font-size="9">VARCHAR(3)</text>
  <text x="1830" y="415" class="mono" fill="#22c55e" font-size="9">PK (part 2)</text>

  <text x="1590" y="430" class="mono" fill="#e2e8f0" font-size="9">exchange_rate</text>
  <text x="1730" y="430" class="mono" fill="#f59e0b" font-size="9">DECIMAL(10,6)</text>
  <text x="1830" y="430" class="mono" fill="#475569" font-size="9">—</text>

  <text x="1590" y="445" class="mono" fill="#e2e8f0" font-size="9">rate_date</text>
  <text x="1730" y="445" class="mono" fill="#f59e0b" font-size="9">DATE</text>
  <text x="1830" y="445" class="mono" fill="#22c55e" font-size="9">PK (part 3)</text>

  <text x="1590" y="460" class="mono" fill="#e2e8f0" font-size="9">ingestion_timestamp</text>
  <text x="1730" y="460" class="mono" fill="#f59e0b" font-size="9">TIMESTAMP</text>
  <text x="1830" y="460" class="mono" fill="#475569" font-size="9">DEFAULT NOW()</text>

  <!-- Sample data -->
  <rect x="1580" y="505" width="380" height="40" rx="8" fill="#060e1d" stroke="#1e2d4a" stroke-width="1"/>
  <text x="1590" y="520" class="mono" fill="#64748b" font-size="8">-- Sample row:</text>
  <text x="1590" y="534" class="mono" fill="#22c55e" font-size="9">USD | EUR | 0.950000 | 2026-04-15 | 2026-04-15 17:00:00</text>

  <!-- Docker badge -->
  <rect x="1580" y="555" width="380" height="46" rx="8" fill="#050d1c" stroke="#0db7ed" stroke-width="1.5"/>
  <text x="1590" y="572" fill="#0db7ed" font-size="11" font-weight="700">Docker Network: nifi-network (bridge)</text>
  <text x="1590" y="589" class="sub" font-size="10">Containers: nifi_fx  &lt;--&gt;  postgres_fx</text>
  <text x="1590" y="604" class="mono" fill="#0db7ed" font-size="9">jdbc:postgresql://postgres_fx:5432/fx_db</text>

  <!-- ── LEGEND ── -->
  <rect x="230" y="605" width="680" height="55" rx="8" fill="#06080f" stroke="#1e2d4a" stroke-width="1"/>
  <text x="250" y="623" class="lane-label" fill="#475569" font-size="9">PROCESSOR COLOR KEY</text>
  <circle cx="256" cy="640" r="7" fill="#1a2a45" stroke="#3b82f6" stroke-width="2"/>
  <text x="270" y="644" class="sub" font-size="10">InvokeHTTP</text>
  <circle cx="356" cy="640" r="7" fill="#2a1f0a" stroke="#f59e0b" stroke-width="2"/>
  <text x="370" y="644" class="sub" font-size="10">JoltTransformJSON</text>
  <circle cx="480" cy="640" r="7" fill="#1f1040" stroke="#a78bfa" stroke-width="2"/>
  <text x="494" y="644" class="sub" font-size="10">SplitJson</text>
  <circle cx="566" cy="640" r="7" fill="#072a30" stroke="#06b6d4" stroke-width="2"/>
  <text x="580" y="644" class="sub" font-size="10">EvaluateJsonPath</text>
  <circle cx="674" cy="640" r="7" fill="#1e0d40" stroke="#8b5cf6" stroke-width="2"/>
  <text x="688" y="644" class="sub" font-size="10">DetectDuplicate</text>
  <circle cx="782" cy="640" r="7" fill="#0a2a10" stroke="#22c55e" stroke-width="2"/>
  <text x="796" y="644" class="sub" font-size="10">PutDatabaseRecord</text>
</svg>
